<?xml version="1.0" standalone="no"?>
<!DOCTYPE svg PUBLIC "-//W3C//DTD SVG 20010904//EN"
 "http://www.w3.org/TR/2001/REC-SVG-20010904/DTD/svg10.dtd">
<svg version="1.0" xmlns="http://www.w3.org/2000/svg"
 width="1200.000000pt" height="309.000000pt" viewBox="0 0 1200.000000 309.000000"
 preserveAspectRatio="xMidYMid meet">

<g transform="translate(0.000000,309.000000) scale(0.100000,-0.100000)"
fill="#000000" stroke="none">
<path d="M3632 2473 l3 -318 28 -3 c16 -2 34 1 41 7 10 8 21 7 42 -4 41 -21
117 -19 163 5 110 56 116 295 8 360 -51 31 -107 35 -161 12 l-46 -21 0 140 0
139 -40 0 -40 0 2 -317z m250 -22 c27 -24 32 -36 36 -89 6 -77 -2 -108 -35
-138 -30 -28 -79 -32 -123 -9 -39 20 -65 89 -56 150 16 104 108 149 178 86z"/>
<path d="M1290 2515 l0 -265 35 0 35 0 0 265 0 265 -35 0 -35 0 0 -265z"/>
<path d="M1570 2445 l0 -265 40 0 40 0 0 265 0 265 -40 0 -40 0 0 -265z"/>
<path d="M1720 2445 l0 -265 155 0 155 0 0 35 0 35 -120 0 -120 0 0 80 0 80
115 0 115 0 0 35 0 35 -115 0 -115 0 0 80 0 80 125 0 125 0 0 35 0 35 -160 0
-160 0 0 -265z"/>
<path d="M1430 2360 l0 -270 35 0 35 0 0 270 0 270 -35 0 -35 0 0 -270z"/>
<path d="M2190 2559 c-46 -18 -92 -61 -111 -103 -55 -121 15 -258 147 -287 50
-11 126 -3 125 14 -1 4 -1 20 -1 37 0 28 -2 29 -26 20 -96 -37 -204 45 -189
144 7 51 36 89 81 111 35 16 63 16 122 -1 20 -6 22 -3 22 29 0 23 -6 37 -16
41 -24 9 -126 6 -154 -5z"/>
<path d="M2420 2520 l0 -39 103 -3 102 -3 -107 -111 c-102 -105 -108 -113
-108 -152 l0 -42 165 0 165 0 0 35 0 35 -121 0 -122 0 117 120 c109 112 116
122 116 160 l0 40 -155 0 -155 0 0 -40z"/>
<path d="M2882 2549 c-23 -4 -47 -11 -52 -14 -9 -6 -15 -85 -6 -85 2 0 23 9
47 20 50 22 87 25 122 9 22 -10 47 -46 47 -68 0 -4 -38 -11 -85 -14 -104 -7
-152 -28 -171 -73 -33 -79 1 -143 87 -165 53 -14 82 -9 132 25 l37 25 0 -24
c0 -21 5 -25 31 -25 l30 0 -3 154 c-3 138 -5 158 -24 183 -36 48 -109 68 -192
52z m148 -229 c0 -29 -26 -76 -45 -84 -36 -13 -102 -6 -119 13 -40 45 13 90
107 91 51 0 57 -2 57 -20z"/>
<path d="M3259 2530 c-124 -65 -152 -219 -60 -324 39 -44 127 -72 198 -61 43
6 44 8 41 38 l-3 32 -56 -3 c-69 -4 -108 14 -139 63 -46 75 -8 178 77 206 34
11 88 5 111 -13 9 -8 12 -1 12 30 0 47 -9 52 -88 52 -36 -1 -70 -8 -93 -20z"/>
<path d="M3500 2350 l0 -200 35 0 35 0 0 200 0 200 -35 0 -35 0 0 -200z"/>
<path d="M4170 2534 c-8 -1 -32 -5 -52 -9 -37 -6 -38 -7 -38 -50 l0 -44 46 21
c79 35 164 7 164 -53 0 -16 -8 -19 -50 -19 -73 0 -147 -19 -179 -46 -62 -52
-45 -149 31 -184 71 -32 123 -25 176 23 l22 20 0 -26 c0 -24 4 -27 36 -27 29
0 35 3 30 16 -3 9 -6 75 -6 148 0 122 -2 136 -23 167 -12 19 -34 39 -47 45
-29 13 -88 23 -110 18z m114 -231 c-27 -82 -39 -93 -106 -93 -49 0 -68 13 -68
46 0 40 45 64 116 64 56 0 63 -2 58 -17z"/>
<path d="M4510 2531 c-74 -15 -110 -52 -110 -112 0 -46 36 -80 112 -104 73
-24 98 -41 98 -69 0 -42 -32 -59 -102 -53 -35 3 -73 8 -85 12 -21 7 -23 4 -23
-28 0 -35 1 -36 45 -43 73 -11 162 0 193 23 40 29 56 85 37 129 -11 28 -26 40
-72 60 -32 14 -73 32 -90 39 -25 11 -33 21 -33 39 0 38 32 50 117 43 l73 -5 0
28 c0 19 -6 30 -17 33 -38 11 -110 15 -143 8z"/>
<path d="M4730 2325 l0 -195 35 0 35 0 0 195 0 195 -35 0 -35 0 0 -195z"/>
<path d="M7096 1918 c-65 -150 -264 -607 -442 -1016 -178 -409 -324 -747 -324
-753 0 -5 65 -9 155 -9 l155 0 26 58 c14 31 95 217 181 412 190 435 632 1444
667 1523 l26 57 -163 0 -163 0 -118 -272z"/>
<path d="M4440 2085 c0 -12 17 -15 95 -15 78 0 95 3 95 15 0 12 -17 15 -95 15
-78 0 -95 -3 -95 -15z"/>
<path d="M1272 1595 c2 -190 1 -345 -1 -345 -2 0 -30 24 -61 54 -213 203 -596
189 -815 -30 -246 -247 -246 -732 1 -978 146 -146 380 -208 588 -156 100 25
166 61 234 128 30 28 55 52 55 52 1 0 2 -42 2 -92 l0 -93 148 -3 147 -3 0 906
0 905 -150 0 -151 0 3 -345z m-265 -420 c115 -34 208 -128 244 -248 17 -55 21
-87 17 -170 -3 -88 -8 -111 -34 -167 -115 -243 -442 -292 -623 -95 -64 70 -92
144 -99 254 -12 208 78 359 251 422 64 23 175 25 244 4z"/>
<path d="M2363 1439 c-205 -20 -385 -131 -486 -301 -120 -202 -123 -500 -5
-705 64 -114 183 -214 309 -261 71 -26 205 -52 271 -52 88 0 247 38 333 80 73
36 206 131 205 148 -1 4 -36 45 -79 92 l-79 84 -42 -38 c-127 -115 -342 -149
-492 -79 -36 17 -85 50 -108 73 -38 38 -100 148 -100 178 0 9 103 12 481 12
l481 0 -5 153 c-3 96 -11 174 -21 212 -81 290 -322 437 -663 404z m242 -268
c95 -42 164 -134 181 -240 l7 -41 -358 0 -357 0 7 28 c30 126 123 231 238 268
65 21 220 13 282 -15z"/>
<path d="M3732 1439 c-267 -25 -477 -205 -548 -469 -24 -88 -25 -281 -1 -370
31 -116 83 -207 166 -290 93 -93 188 -143 323 -171 113 -23 166 -24 282 -3
161 28 275 84 371 183 l49 51 -84 85 -84 84 -42 -39 c-125 -115 -352 -151
-499 -80 -73 35 -122 86 -162 168 -37 75 -38 78 -38 191 0 97 4 125 23 173 31
76 108 159 180 195 140 68 390 27 491 -81 14 -14 29 -26 35 -25 6 0 46 42 89
92 l78 92 -56 52 c-131 123 -344 183 -573 162z"/>
<path d="M5014 1439 c-96 -9 -218 -48 -295 -95 -83 -50 -181 -159 -224 -248
-93 -193 -88 -448 12 -639 120 -228 409 -367 686 -328 246 35 422 152 516 342
57 115 74 205 68 349 -9 197 -67 333 -196 452 -142 131 -333 187 -567 167z
m164 -259 c209 -39 330 -227 301 -464 -17 -136 -93 -247 -207 -303 -52 -25
-67 -28 -167 -28 -101 0 -115 2 -170 29 -114 57 -185 158 -207 300 -45 289
176 518 450 466z"/>
<path d="M7753 1439 c-162 -16 -292 -79 -403 -196 -119 -125 -171 -267 -171
-464 0 -271 115 -470 336 -580 207 -103 457 -101 670 5 50 25 115 67 145 94
l55 49 -79 87 -78 86 -27 -20 c-128 -100 -192 -124 -336 -124 -103 -1 -114 1
-175 30 -36 17 -85 51 -109 75 -40 40 -101 146 -101 177 0 9 103 12 479 12
l480 0 6 53 c10 77 -10 251 -40 344 -85 269 -322 404 -652 372z m224 -260
c104 -39 181 -135 199 -248 l7 -41 -357 0 -356 0 6 28 c20 89 89 189 161 233
86 53 238 66 340 28z"/>
<path d="M9305 1439 c-83 -9 -142 -29 -207 -70 -49 -32 -138 -123 -138 -142 0
-6 -3 -7 -7 -4 -3 4 -7 53 -7 109 l-1 103 -145 0 -145 0 0 -650 0 -650 145 0
145 0 1 355 c0 377 3 406 50 486 34 60 116 130 182 155 33 12 90 24 135 27
l77 5 0 138 c0 76 -3 139 -7 141 -5 2 -39 1 -78 -3z"/>
<path d="M9823 1436 c-144 -28 -257 -105 -310 -215 -25 -50 -28 -67 -28 -156
0 -119 19 -170 88 -238 62 -59 139 -98 297 -147 74 -24 156 -53 181 -66 172
-86 107 -254 -98 -254 -113 0 -281 57 -388 130 -26 18 -48 30 -50 28 -1 -1
-26 -49 -54 -105 l-51 -102 38 -29 c93 -73 211 -121 361 -147 112 -20 156 -19
271 5 246 51 373 196 357 407 -7 95 -41 167 -106 225 -63 57 -145 96 -311 148
-159 50 -198 68 -234 110 -30 36 -33 68 -10 111 48 95 299 81 490 -25 l44 -25
56 111 c44 87 53 113 42 120 -41 29 -164 80 -233 98 -104 27 -259 34 -352 16z"/>
<path d="M11114 1439 c-280 -27 -489 -206 -560 -479 -12 -43 -17 -104 -17
-180 0 -203 53 -340 183 -470 113 -114 256 -173 445 -186 109 -8 262 23 370
76 72 35 206 132 205 149 -1 3 -36 44 -80 90 l-78 85 -42 -38 c-23 -21 -69
-51 -103 -67 -225 -106 -477 -33 -571 166 -45 93 -89 85 455 85 l481 0 -5 153
c-3 97 -11 174 -22 211 -82 292 -320 438 -661 405z m237 -266 c96 -43 168
-138 184 -240 l7 -43 -357 0 -357 0 7 28 c30 126 123 231 238 268 63 21 220
13 278 -13z"/>
<path d="M5790 1434 c0 -3 71 -170 159 -372 87 -202 187 -432 221 -512 34 -80
66 -149 70 -153 6 -7 150 308 150 328 0 9 -274 644 -296 688 l-15 27 -144 0
c-80 0 -145 -3 -145 -6z"/>
</g>
</svg>
