<?xml version="1.0" encoding="utf-8"?>
<svg version="1.1" id="Layer_1" xmlns="http://www.w3.org/2000/svg" xmlns:xlink="http://www.w3.org/1999/xlink" x="0px" y="0px"
	 viewBox="0 0 82 66" style="enable-background:new 0 0 82 66;" xml:space="preserve">
<style type="text/css">
	.st0{fill:#000000;}
</style>
<g>
	<g>
		<path class="st0" d="M36.1,2.1h-3V0.2h8.1v1.9h-2.9v8.2h-2.2V2.1z"/>
		<path class="st0" d="M47,0c3.1,0,5.3,2.2,5.3,5.2s-2.2,5.2-5.3,5.2c-3.1,0-5.3-2.2-5.3-5.2S44,0,47,0z M47,1.9
			c-1.9,0-3.1,1.4-3.1,3.3c0,1.9,1.2,3.3,3.1,3.3c1.9,0,3.1-1.4,3.1-3.3C50.1,3.3,48.9,1.9,47,1.9z"/>
		<path class="st0" d="M56,3.5v6.8h-2.2V0.2h2.2l4.7,6.6V0.2h2.2v10.1h-2.1L56,3.5z"/>
		<path class="st0" d="M64.9,0.2h7.2V2h-5v2.2H72v1.9h-4.9v2.4h5v1.9h-7.2V0.2z"/>
		<path class="st0" d="M77.5,6.7h-1.6v3.6h-2.2V0.2h4.7c2.1,0,3.4,1.4,3.4,3.3c0,1.8-1.1,2.8-2.2,3l2.3,3.9h-2.5L77.5,6.7z M78.2,2
			h-2.3v2.8h2.3c0.9,0,1.5-0.5,1.5-1.4C79.7,2.6,79.1,2,78.2,2z"/>
	</g>
	<g>
		<polygon class="st0" points="0,19 27,19 27,26 9,26 9,33 20,33 20,46 0,46 		"/>
		<polygon class="st0" points="60,26 38,26 38,33 27,33 27,53 20,53 20,66 60,66 		"/>
	</g>
</g>
</svg>
