<?xml version="1.0" standalone="no"?>
<!DOCTYPE svg PUBLIC "-//W3C//DTD SVG 20010904//EN"
 "http://www.w3.org/TR/2001/REC-SVG-20010904/DTD/svg10.dtd">
<svg version="1.0" xmlns="http://www.w3.org/2000/svg"
 width="1194.000000pt" height="202.000000pt" viewBox="0 0 1194.000000 202.000000"
 preserveAspectRatio="xMidYMid meet">

<g transform="translate(0.000000,202.000000) scale(0.100000,-0.100000)"
fill="#000000" stroke="none">
<path d="M8331 1614 c-134 -29 -291 -126 -376 -232 -51 -65 -118 -188 -134
-247 -50 -190 -25 -391 71 -553 42 -73 167 -198 240 -240 128 -76 293 -110
432 -91 355 48 606 334 606 688 0 121 -19 203 -72 311 -34 69 -60 103 -133
176 -75 76 -105 98 -175 132 -146 69 -308 89 -459 56z m240 -184 c242 -46 425
-283 405 -525 -34 -422 -528 -615 -830 -325 -271 260 -175 704 179 828 94 33
157 39 246 22z"/>
<path d="M11345 1620 c-238 -37 -389 -176 -403 -370 -11 -154 50 -268 178
-333 77 -39 139 -54 335 -81 146 -20 180 -31 223 -71 35 -32 37 -36 37 -98 0
-75 -14 -101 -84 -154 -60 -46 -137 -66 -232 -61 -139 8 -244 78 -264 176 l-7
33 -96 -3 -97 -3 2 -49 c2 -69 51 -164 114 -220 131 -117 331 -163 513 -116
216 55 345 191 354 371 6 109 -15 173 -77 241 -83 90 -193 132 -434 162 -181
23 -249 62 -264 149 -20 126 86 224 254 235 128 8 232 -38 272 -122 l23 -46
66 1 c104 2 128 10 124 39 -6 49 -61 150 -105 194 -97 96 -280 150 -432 126z"/>
<path d="M40 1140 c0 -450 1 -473 21 -533 53 -158 195 -291 350 -326 67 -16
198 -13 260 5 158 46 285 175 336 339 16 55 18 102 18 520 l0 460 -97 3 -97 3
-3 -458 c-3 -453 -3 -459 -26 -508 -13 -27 -41 -69 -64 -92 -139 -142 -375
-106 -471 72 -21 39 -22 52 -27 510 l-5 470 -97 3 -98 3 0 -471z"/>
<path d="M1410 946 l0 -666 95 0 95 0 2 247 3 248 142 3 141 3 26 -68 c14 -38
56 -149 93 -248 l68 -180 104 -3 103 -3 -6 25 c-3 13 -48 131 -100 261 l-95
237 31 16 c145 80 226 227 216 390 -12 177 -106 312 -261 375 -48 20 -73 22
-354 25 l-303 3 0 -665z m566 453 c129 -35 193 -192 130 -317 -29 -57 -48 -75
-106 -101 -40 -18 -66 -21 -222 -21 l-178 0 0 224 c0 202 2 225 17 228 39 7
321 -3 359 -13z"/>
<path d="M2720 945 l0 -666 343 3 c332 3 344 4 400 26 34 14 81 45 115 77 99
91 139 196 129 331 -7 96 -40 168 -112 243 -45 48 -53 60 -41 70 7 6 26 39 42
74 24 53 28 75 28 147 0 110 -32 186 -110 260 -99 94 -101 94 -471 98 l-323 3
0 -666z m630 443 c57 -39 75 -72 75 -138 0 -66 -18 -99 -75 -137 -31 -22 -42
-23 -231 -23 l-199 0 0 160 0 160 199 0 c189 0 200 -1 231 -22z m77 -544 c122
-97 106 -282 -32 -345 -35 -16 -67 -19 -257 -19 l-218 0 0 201 0 200 234 -3
234 -3 39 -31z"/>
<path d="M4477 1603 c-6 -9 -478 -1196 -516 -1296 l-11 -28 106 3 105 3 70
170 c39 94 73 178 76 188 5 16 25 17 243 17 l238 0 72 -178 c39 -98 75 -184
79 -190 5 -9 37 -12 109 -10 l101 3 -262 660 -263 660 -71 3 c-39 2 -74 -1
-76 -5z m96 -365 c9 -24 43 -121 76 -215 l60 -173 -159 0 -159 0 41 113 c22
61 56 158 76 215 20 56 39 102 43 102 3 0 13 -19 22 -42z"/>
<path d="M5490 945 l0 -665 95 0 95 0 0 451 c0 308 3 450 10 447 6 -2 150
-203 319 -448 l308 -445 82 -3 81 -3 0 666 0 665 -100 0 -100 0 0 -457 c0
-326 -3 -454 -11 -446 -6 6 -149 210 -318 454 l-308 444 -76 3 -77 3 0 -666z"/>
<path d="M7000 1515 l0 -94 113 -3 112 -3 3 -250 c3 -282 -3 -336 -53 -440
-46 -97 -124 -173 -234 -228 l-86 -44 -3 -91 c-3 -91 -2 -92 21 -92 13 0 49 9
81 20 201 69 357 224 430 429 l31 86 3 403 3 402 -210 0 -211 0 0 -95z"/>
<path d="M9568 1604 c-5 -4 -8 -306 -8 -671 l0 -664 338 3 c321 3 340 5 392
26 68 27 133 78 181 142 53 71 74 138 74 240 0 75 -4 93 -32 153 -18 37 -55
92 -84 122 -48 51 -51 57 -37 73 52 58 82 180 67 271 -19 122 -112 237 -227
282 -53 21 -75 23 -357 27 -165 2 -303 1 -307 -4z m598 -213 c127 -58 133
-231 10 -291 -40 -19 -58 -20 -232 -18 l-189 3 -3 140 c-1 77 0 150 3 163 5
22 7 22 188 22 156 0 188 -3 223 -19z m39 -522 c79 -22 145 -116 145 -204 -1
-73 -72 -163 -147 -185 -24 -7 -115 -10 -243 -8 l-205 3 -3 190 c-1 104 0 195
2 202 7 17 392 18 451 2z"/>
</g>
</svg>
